<mxfile host="app.diagrams.net" modified="2023-08-13T15:46:13.225Z" agent="Mozilla/5.0 (Windows NT 10.0; Win64; x64) AppleWebKit/537.36 (KHTML, like Gecko) Chrome/115.0.0.0 Safari/537.36" etag="VkpGOdkYDmIofKLQ7kNR" version="21.6.8" type="github" pages="11">
  <diagram name="Main" id="ES3LrQiwAr_SAzWsuQFd">
    <mxGraphModel dx="778" dy="1179" grid="1" gridSize="10" guides="1" tooltips="1" connect="1" arrows="1" fold="1" page="1" pageScale="1" pageWidth="850" pageHeight="1100" math="0" shadow="0">
      <root>
        <mxCell id="0" />
        <mxCell id="1" parent="0" />
        <UserObject label="&lt;h1&gt;&lt;font face=&quot;Garamond&quot;&gt;TRESCO&lt;/font&gt;&lt;/h1&gt;" link="data:page/id,ES3LrQiwAr_SAzWsuQFd" id="9XiAMWW_PINKDkze77D6-1">
          <mxCell style="whiteSpace=wrap;html=1;aspect=fixed;rounded=1;sketch=1;curveFitting=1;jiggle=2;glass=0;" parent="1" vertex="1">
            <mxGeometry x="40" y="40" width="80" height="80" as="geometry" />
          </mxCell>
        </UserObject>
        <UserObject label="&lt;h1&gt;CONTENT&lt;br&gt;MANAGER&lt;/h1&gt;" id="oJ2RBuEpi6LWtECcTs_G-2">
          <mxCell style="whiteSpace=wrap;html=1;aspect=fixed;rounded=1;sketch=1;curveFitting=1;jiggle=2;glass=0;" parent="1" vertex="1">
            <mxGeometry x="336.5" y="880" width="160" height="160" as="geometry" />
          </mxCell>
        </UserObject>
        <UserObject label="&lt;h1&gt;SITE&lt;br&gt;MANAGER&lt;/h1&gt;" id="eMYPX8mxCytNvQfOnok1-1">
          <mxCell style="whiteSpace=wrap;html=1;aspect=fixed;rounded=1;sketch=1;curveFitting=1;jiggle=2;glass=0;" parent="1" vertex="1">
            <mxGeometry x="160" y="40" width="160" height="160" as="geometry" />
          </mxCell>
        </UserObject>
        <UserObject label="&lt;h1&gt;USERS&lt;br&gt;MANAGER&lt;/h1&gt;" id="eMYPX8mxCytNvQfOnok1-2">
          <mxCell style="whiteSpace=wrap;html=1;aspect=fixed;rounded=1;sketch=1;curveFitting=1;jiggle=2;glass=0;" parent="1" vertex="1">
            <mxGeometry x="520" y="880" width="160" height="160" as="geometry" />
          </mxCell>
        </UserObject>
        <UserObject label="&lt;h1&gt;CONTENT&lt;br&gt;MANAGER&lt;/h1&gt;" id="eMYPX8mxCytNvQfOnok1-3">
          <mxCell style="whiteSpace=wrap;html=1;aspect=fixed;rounded=1;sketch=1;curveFitting=1;jiggle=2;glass=0;" parent="1" vertex="1">
            <mxGeometry x="10" y="880" width="160" height="160" as="geometry" />
          </mxCell>
        </UserObject>
        <UserObject label="&lt;h1&gt;PAGE&lt;/h1&gt;" id="eMYPX8mxCytNvQfOnok1-4">
          <mxCell style="whiteSpace=wrap;html=1;aspect=fixed;rounded=1;sketch=1;curveFitting=1;jiggle=2;glass=0;" parent="1" vertex="1">
            <mxGeometry x="90" y="560" width="80" height="80" as="geometry" />
          </mxCell>
        </UserObject>
        <UserObject label="&lt;h1&gt;USER&lt;/h1&gt;" id="MFonBhlsyFvH2njO0llr-2">
          <mxCell style="whiteSpace=wrap;html=1;aspect=fixed;rounded=1;sketch=1;curveFitting=1;jiggle=2;glass=0;" vertex="1" parent="1">
            <mxGeometry x="240" y="890" width="80" height="80" as="geometry" />
          </mxCell>
        </UserObject>
        <mxCell id="MFonBhlsyFvH2njO0llr-3" value="" style="image;aspect=fixed;perimeter=ellipsePerimeter;html=1;align=center;shadow=0;dashed=0;spacingTop=3;image=img/lib/active_directory/users.svg;sketch=1;hachureGap=4;jiggle=2;curveFitting=1;fontFamily=Architects Daughter;fontSource=https%3A%2F%2Ffonts.googleapis.com%2Fcss%3Ffamily%3DArchitects%2BDaughter;fontSize=20;" vertex="1" parent="1">
          <mxGeometry x="430" y="710" width="33" height="50" as="geometry" />
        </mxCell>
        <mxCell id="MFonBhlsyFvH2njO0llr-6" value="Apps" style="sketch=0;outlineConnect=0;fontColor=#232F3E;gradientColor=none;strokeColor=#232F3E;fillColor=#ffffff;dashed=0;verticalLabelPosition=bottom;verticalAlign=top;align=center;html=1;fontSize=12;fontStyle=0;aspect=fixed;shape=mxgraph.aws4.resourceIcon;resIcon=mxgraph.aws4.apps;hachureGap=4;jiggle=2;curveFitting=1;fontFamily=Architects Daughter;fontSource=https%3A%2F%2Ffonts.googleapis.com%2Fcss%3Ffamily%3DArchitects%2BDaughter;" vertex="1" parent="1">
          <mxGeometry x="540" y="700" width="60" height="60" as="geometry" />
        </mxCell>
        <mxCell id="MFonBhlsyFvH2njO0llr-7" value="" style="sketch=0;outlineConnect=0;fontColor=#232F3E;gradientColor=none;fillColor=#B0084D;strokeColor=none;dashed=0;verticalLabelPosition=bottom;verticalAlign=top;align=center;html=1;fontSize=12;fontStyle=0;aspect=fixed;pointerEvents=1;shape=mxgraph.aws4.opsworks_apps;hachureGap=4;jiggle=2;curveFitting=1;fontFamily=Architects Daughter;fontSource=https%3A%2F%2Ffonts.googleapis.com%2Fcss%3Ffamily%3DArchitects%2BDaughter;" vertex="1" parent="1">
          <mxGeometry x="680" y="710" width="78" height="78" as="geometry" />
        </mxCell>
        <mxCell id="MFonBhlsyFvH2njO0llr-8" value="" style="shape=image;html=1;verticalAlign=top;verticalLabelPosition=bottom;labelBackgroundColor=#ffffff;imageAspect=0;aspect=fixed;image=https://cdn1.iconfinder.com/data/icons/nuvola2/48x48/actions/project_open.png;sketch=1;hachureGap=4;jiggle=2;curveFitting=1;fontFamily=Architects Daughter;fontSource=https%3A%2F%2Ffonts.googleapis.com%2Fcss%3Ffamily%3DArchitects%2BDaughter;fontSize=20;" vertex="1" parent="1">
          <mxGeometry x="770" y="880" width="48" height="48" as="geometry" />
        </mxCell>
        <mxCell id="MFonBhlsyFvH2njO0llr-10" value="" style="group" vertex="1" connectable="0" parent="1">
          <mxGeometry x="40" y="240" width="120" height="120" as="geometry" />
        </mxCell>
        <UserObject label="&lt;h1&gt;&lt;br&gt;&lt;br&gt;&lt;/h1&gt;&lt;h1 style=&quot;line-height: 120%;&quot;&gt;SITES&lt;/h1&gt;" id="MFonBhlsyFvH2njO0llr-1">
          <mxCell style="whiteSpace=wrap;html=1;aspect=fixed;rounded=1;sketch=1;curveFitting=1;jiggle=2;glass=0;shadow=0;verticalAlign=bottom;" vertex="1" parent="MFonBhlsyFvH2njO0llr-10">
            <mxGeometry width="120" height="120" as="geometry" />
          </mxCell>
        </UserObject>
        <mxCell id="MFonBhlsyFvH2njO0llr-5" value="" style="image;aspect=fixed;html=1;points=[];align=center;fontSize=12;image=img/lib/azure2/blockchain/ABS_Member.svg;sketch=1;hachureGap=4;jiggle=2;curveFitting=1;fontFamily=Architects Daughter;fontSource=https%3A%2F%2Ffonts.googleapis.com%2Fcss%3Ffamily%3DArchitects%2BDaughter;shadow=0;" vertex="1" parent="MFonBhlsyFvH2njO0llr-10">
          <mxGeometry x="42.77000000000004" y="20" width="34.46" height="40" as="geometry" />
        </mxCell>
        <UserObject label="&lt;h1&gt;MD&lt;/h1&gt;" id="MFonBhlsyFvH2njO0llr-12">
          <mxCell style="whiteSpace=wrap;html=1;aspect=fixed;rounded=1;sketch=1;curveFitting=1;jiggle=2;glass=0;" vertex="1" parent="1">
            <mxGeometry x="295" y="685" width="90" height="90" as="geometry" />
          </mxCell>
        </UserObject>
        <mxCell id="MFonBhlsyFvH2njO0llr-22" style="edgeStyle=orthogonalEdgeStyle;rounded=0;sketch=1;hachureGap=4;jiggle=2;curveFitting=1;orthogonalLoop=1;jettySize=auto;html=1;exitX=1;exitY=0.5;exitDx=0;exitDy=0;entryX=0;entryY=0.5;entryDx=0;entryDy=0;fontFamily=Architects Daughter;fontSource=https%3A%2F%2Ffonts.googleapis.com%2Fcss%3Ffamily%3DArchitects%2BDaughter;fontSize=16;" edge="1" parent="1" source="MFonBhlsyFvH2njO0llr-19" target="MFonBhlsyFvH2njO0llr-21">
          <mxGeometry relative="1" as="geometry" />
        </mxCell>
        <mxCell id="MFonBhlsyFvH2njO0llr-19" value="SITE" style="rounded=1;whiteSpace=wrap;html=1;sketch=1;hachureGap=4;jiggle=2;curveFitting=1;fontFamily=Architects Daughter;fontSource=https%3A%2F%2Ffonts.googleapis.com%2Fcss%3Ffamily%3DArchitects%2BDaughter;fontSize=20;" vertex="1" parent="1">
          <mxGeometry x="120" y="400" width="120" height="40" as="geometry" />
        </mxCell>
        <mxCell id="MFonBhlsyFvH2njO0llr-20" style="edgeStyle=orthogonalEdgeStyle;rounded=0;sketch=1;hachureGap=4;jiggle=2;curveFitting=1;orthogonalLoop=1;jettySize=auto;html=1;exitX=0.5;exitY=1;exitDx=0;exitDy=0;entryX=0;entryY=0.5;entryDx=0;entryDy=0;fontFamily=Architects Daughter;fontSource=https%3A%2F%2Ffonts.googleapis.com%2Fcss%3Ffamily%3DArchitects%2BDaughter;fontSize=16;" edge="1" parent="1" source="MFonBhlsyFvH2njO0llr-1" target="MFonBhlsyFvH2njO0llr-19">
          <mxGeometry relative="1" as="geometry" />
        </mxCell>
        <mxCell id="MFonBhlsyFvH2njO0llr-24" value="USERS" style="rounded=1;whiteSpace=wrap;html=1;sketch=1;hachureGap=4;jiggle=2;curveFitting=1;fontFamily=Architects Daughter;fontSource=https%3A%2F%2Ffonts.googleapis.com%2Fcss%3Ffamily%3DArchitects%2BDaughter;fontSize=20;" vertex="1" parent="1">
          <mxGeometry x="80" y="480" width="120" height="40" as="geometry" />
        </mxCell>
        <UserObject label="" tooltip="Users assigned to this site." id="MFonBhlsyFvH2njO0llr-27">
          <mxCell style="group" vertex="1" connectable="0" parent="1">
            <mxGeometry x="280" y="400" width="120" height="40" as="geometry" />
          </mxCell>
        </UserObject>
        <mxCell id="MFonBhlsyFvH2njO0llr-21" value="&amp;nbsp; &amp;nbsp;USERS" style="rounded=1;whiteSpace=wrap;html=1;sketch=1;hachureGap=4;jiggle=2;curveFitting=1;fontFamily=Architects Daughter;fontSource=https%3A%2F%2Ffonts.googleapis.com%2Fcss%3Ffamily%3DArchitects%2BDaughter;fontSize=20;" vertex="1" parent="MFonBhlsyFvH2njO0llr-27">
          <mxGeometry width="120" height="40" as="geometry" />
        </mxCell>
        <mxCell id="MFonBhlsyFvH2njO0llr-4" value="" style="sketch=0;outlineConnect=0;fontColor=#232F3E;gradientColor=none;fillColor=#232F3D;strokeColor=none;dashed=0;verticalLabelPosition=bottom;verticalAlign=top;align=center;html=1;fontSize=12;fontStyle=0;aspect=fixed;pointerEvents=1;shape=mxgraph.aws4.users;hachureGap=4;jiggle=2;curveFitting=1;fontFamily=Architects Daughter;fontSource=https%3A%2F%2Ffonts.googleapis.com%2Fcss%3Ffamily%3DArchitects%2BDaughter;" vertex="1" parent="MFonBhlsyFvH2njO0llr-27">
          <mxGeometry x="12" y="11" width="18" height="18" as="geometry" />
        </mxCell>
        <mxCell id="MFonBhlsyFvH2njO0llr-28" style="edgeStyle=orthogonalEdgeStyle;rounded=0;sketch=1;hachureGap=4;jiggle=2;curveFitting=1;orthogonalLoop=1;jettySize=auto;html=1;exitX=1;exitY=0.5;exitDx=0;exitDy=0;entryX=0;entryY=0.5;entryDx=0;entryDy=0;fontFamily=Architects Daughter;fontSource=https%3A%2F%2Ffonts.googleapis.com%2Fcss%3Ffamily%3DArchitects%2BDaughter;fontSize=16;" edge="1" parent="1" source="MFonBhlsyFvH2njO0llr-21" target="MFonBhlsyFvH2njO0llr-25">
          <mxGeometry relative="1" as="geometry" />
        </mxCell>
        <UserObject label="" tooltip="Maximum authority." id="MFonBhlsyFvH2njO0llr-29">
          <mxCell style="group" vertex="1" connectable="0" parent="1">
            <mxGeometry x="440" y="350" width="120" height="40" as="geometry" />
          </mxCell>
        </UserObject>
        <UserObject label="&amp;nbsp; &amp;nbsp;OWNER" tooltip="Maximum authority." id="MFonBhlsyFvH2njO0llr-25">
          <mxCell style="rounded=1;whiteSpace=wrap;html=1;sketch=1;hachureGap=4;jiggle=2;curveFitting=1;fontFamily=Architects Daughter;fontSource=https%3A%2F%2Ffonts.googleapis.com%2Fcss%3Ffamily%3DArchitects%2BDaughter;fontSize=20;" vertex="1" parent="MFonBhlsyFvH2njO0llr-29">
            <mxGeometry width="120" height="40" as="geometry" />
          </mxCell>
        </UserObject>
        <mxCell id="MFonBhlsyFvH2njO0llr-9" value="" style="sketch=0;outlineConnect=0;fontColor=#232F3E;gradientColor=none;fillColor=#232F3D;strokeColor=none;dashed=0;verticalLabelPosition=bottom;verticalAlign=top;align=center;html=1;fontSize=12;fontStyle=0;aspect=fixed;pointerEvents=1;shape=mxgraph.aws4.user;hachureGap=4;jiggle=2;curveFitting=1;fontFamily=Architects Daughter;fontSource=https%3A%2F%2Ffonts.googleapis.com%2Fcss%3Ffamily%3DArchitects%2BDaughter;" vertex="1" parent="MFonBhlsyFvH2njO0llr-29">
          <mxGeometry x="10" y="10" width="20" height="20" as="geometry" />
        </mxCell>
        <UserObject label="" tooltip="Config &amp; Management Authority" id="MFonBhlsyFvH2njO0llr-30">
          <mxCell style="group" vertex="1" connectable="0" parent="1">
            <mxGeometry x="440" y="400" width="120" height="40" as="geometry" />
          </mxCell>
        </UserObject>
        <mxCell id="MFonBhlsyFvH2njO0llr-31" value="&amp;nbsp; &amp;nbsp;ADMIN" style="rounded=1;whiteSpace=wrap;html=1;sketch=1;hachureGap=4;jiggle=2;curveFitting=1;fontFamily=Architects Daughter;fontSource=https%3A%2F%2Ffonts.googleapis.com%2Fcss%3Ffamily%3DArchitects%2BDaughter;fontSize=20;" vertex="1" parent="MFonBhlsyFvH2njO0llr-30">
          <mxGeometry width="120" height="40" as="geometry" />
        </mxCell>
        <mxCell id="MFonBhlsyFvH2njO0llr-32" value="" style="sketch=0;outlineConnect=0;fontColor=#232F3E;gradientColor=none;fillColor=#232F3D;strokeColor=none;dashed=0;verticalLabelPosition=bottom;verticalAlign=top;align=center;html=1;fontSize=12;fontStyle=0;aspect=fixed;pointerEvents=1;shape=mxgraph.aws4.user;hachureGap=4;jiggle=2;curveFitting=1;fontFamily=Architects Daughter;fontSource=https%3A%2F%2Ffonts.googleapis.com%2Fcss%3Ffamily%3DArchitects%2BDaughter;" vertex="1" parent="MFonBhlsyFvH2njO0llr-30">
          <mxGeometry x="10" y="10" width="20" height="20" as="geometry" />
        </mxCell>
        <UserObject label="" tooltip="Site editors with limited roles." id="MFonBhlsyFvH2njO0llr-33">
          <mxCell style="group" vertex="1" connectable="0" parent="1">
            <mxGeometry x="440" y="450" width="120" height="40" as="geometry" />
          </mxCell>
        </UserObject>
        <mxCell id="MFonBhlsyFvH2njO0llr-34" value="&amp;nbsp; &amp;nbsp;EDITOR" style="rounded=1;whiteSpace=wrap;html=1;sketch=1;hachureGap=4;jiggle=2;curveFitting=1;fontFamily=Architects Daughter;fontSource=https%3A%2F%2Ffonts.googleapis.com%2Fcss%3Ffamily%3DArchitects%2BDaughter;fontSize=20;" vertex="1" parent="MFonBhlsyFvH2njO0llr-33">
          <mxGeometry width="120" height="40" as="geometry" />
        </mxCell>
        <mxCell id="MFonBhlsyFvH2njO0llr-35" value="" style="sketch=0;outlineConnect=0;fontColor=#232F3E;gradientColor=none;fillColor=#232F3D;strokeColor=none;dashed=0;verticalLabelPosition=bottom;verticalAlign=top;align=center;html=1;fontSize=12;fontStyle=0;aspect=fixed;pointerEvents=1;shape=mxgraph.aws4.user;hachureGap=4;jiggle=2;curveFitting=1;fontFamily=Architects Daughter;fontSource=https%3A%2F%2Ffonts.googleapis.com%2Fcss%3Ffamily%3DArchitects%2BDaughter;" vertex="1" parent="MFonBhlsyFvH2njO0llr-33">
          <mxGeometry x="10" y="10" width="20" height="20" as="geometry" />
        </mxCell>
        <mxCell id="MFonBhlsyFvH2njO0llr-36" style="edgeStyle=orthogonalEdgeStyle;rounded=0;sketch=1;hachureGap=4;jiggle=2;curveFitting=1;orthogonalLoop=1;jettySize=auto;html=1;exitX=1;exitY=0.5;exitDx=0;exitDy=0;fontFamily=Architects Daughter;fontSource=https%3A%2F%2Ffonts.googleapis.com%2Fcss%3Ffamily%3DArchitects%2BDaughter;fontSize=16;" edge="1" parent="1" source="MFonBhlsyFvH2njO0llr-21" target="MFonBhlsyFvH2njO0llr-31">
          <mxGeometry relative="1" as="geometry" />
        </mxCell>
        <mxCell id="MFonBhlsyFvH2njO0llr-37" style="edgeStyle=orthogonalEdgeStyle;rounded=0;sketch=1;hachureGap=4;jiggle=2;curveFitting=1;orthogonalLoop=1;jettySize=auto;html=1;exitX=1;exitY=0.5;exitDx=0;exitDy=0;entryX=0;entryY=0.5;entryDx=0;entryDy=0;fontFamily=Architects Daughter;fontSource=https%3A%2F%2Ffonts.googleapis.com%2Fcss%3Ffamily%3DArchitects%2BDaughter;fontSize=16;" edge="1" parent="1" source="MFonBhlsyFvH2njO0llr-21" target="MFonBhlsyFvH2njO0llr-34">
          <mxGeometry relative="1" as="geometry" />
        </mxCell>
      </root>
    </mxGraphModel>
  </diagram>
  <diagram id="0L23XJ9sHVe9O0ZRlJrM" name="Database">
    <mxGraphModel dx="778" dy="1179" grid="1" gridSize="10" guides="1" tooltips="1" connect="1" arrows="1" fold="1" page="1" pageScale="1" pageWidth="850" pageHeight="1100" math="0" shadow="0">
      <root>
        <mxCell id="0" />
        <mxCell id="1" parent="0" />
        <mxCell id="vubCEgTY4Dlxa6UZT4j8-1" value="" style="shape=image;verticalLabelPosition=bottom;labelBackgroundColor=default;verticalAlign=top;aspect=fixed;imageAspect=0;image=data:image/svg+xml,PHN2ZyB4bWxucz0iaHR0cDovL3d3dy53My5vcmcvMjAwMC9zdmciIGZpbGw9Im5vbmUiIHZpZXdCb3g9IjAgMCA1MTIgNTEyIj4mI3hhOyAgPHJlY3QgdHJhbnNmb3JtPSJtYXRyaXgoMC45OTk5OTk5OTk5OTk5OTk5LCAwLCAwLCAwLjk5OTk5OTk5OTk5OTk5OTksIDAsIC0zLjU1MjcxMzY3ODgwMDUwMWUtMTUpIiBwYWludC1vcmRlcj0ic3Ryb2tlIiBzdHJva2Utb3BhY2l0eT0iMTAwJSIgc3Ryb2tlLXdpZHRoPSIwIiBzdHJva2U9IiNGRkZGRkYiIGZpbGw9Im5vbmUiIHk9IjAiIHg9IjAiIGhlaWdodD0iNTEyIiB3aWR0aD0iNTEyIiBpZD0icjQiLz4mI3hhOyAgPHN2ZyB4bWxucz0iaHR0cDovL3d3dy53My5vcmcvMjAwMC9zdmciIGNsaXAtcGF0aD0iaW5pdGlhbCIgdHJhbnNmb3JtPSJtYXRyaXgoMS41NjI1LCAwLCAwLCAxLjU2MjUsIDM1Ljg0MDAwMTU4MzA5OSwgMzUuODQwMDAxNTgzMDk5KSIgc3R5bGU9ImNvbG9yOiByZ2IoMjU1LCAyNTUsIDI1NSk7IHRyYW5zZm9ybS1vcmlnaW46IC0zNS44NHB4IC0zNS44NHB4OyIgYWxpZ25tZW50LWJhc2VsaW5lPSJtaWRkbGUiIHk9IjU2IiB4PSI1NiIgdmlld0JveD0iMCAwIDI1NiAyNTYiIGhlaWdodD0iNDAwIiB3aWR0aD0iNDAwIj4mI3hhOyAgICA8ZyBmaWxsPSJub25lIj4mI3hhOyAgICAgIDxnIGNsaXAtcGF0aD0idXJsKCNza2lsbEljb25zU3VwYWJhc2VEYXJrMikiPiYjeGE7ICAgICAgICA8cGF0aCBkPSJNMTQ0Ljc1NyAyMjMuMTkzYy01LjA2MSA2LjM3My0xNS4zMjMgMi44ODEtMTUuNDQ1LTUuMjU3bC0xLjc4My0xMTkuMDI5aDgwLjAzNWMxNC40OTYgMCAyMi41ODEgMTYuNzQ0IDEzLjU2NyAyOC4wOTdsLTc2LjM3NCA5Ni4xODlaIiBmaWxsPSJ1cmwoI3NraWxsSWNvbnNTdXBhYmFzZURhcmswKSIvPiYjeGE7ICAgICAgICA8cGF0aCBkPSJNMTQ0Ljc1NyAyMjMuMTkzYy01LjA2MSA2LjM3My0xNS4zMjMgMi44ODEtMTUuNDQ1LTUuMjU3bC0xLjc4My0xMTkuMDI5aDgwLjAzNWMxNC40OTYgMCAyMi41ODEgMTYuNzQ0IDEzLjU2NyAyOC4wOTdsLTc2LjM3NCA5Ni4xODlaIiBmaWxsLW9wYWNpdHk9Ii4yIiBmaWxsPSJ1cmwoI3NraWxsSWNvbnNTdXBhYmFzZURhcmsxKSIvPiYjeGE7ICAgICAgICA8cGF0aCBkPSJNMTEyLjIwNyAzMS42NjZjNS4wNjEtNi4zNzUgMTUuMzIzLTIuODgyIDE1LjQ0NSA1LjI1NmwuNzgyIDExOS4wMjlINDkuNGMtMTQuNDk3IDAtMjIuNTgyLTE2Ljc0NC0xMy41NjctMjguMDk3bDc2LjM3NC05Ni4xODlaIiBmaWxsPSIjM0VDRjhFIi8+JiN4YTsgICAgICA8L2c+JiN4YTsgICAgICA8ZGVmcz4mI3hhOyAgICAgICAgPGxpbmVhckdyYWRpZW50IGdyYWRpZW50VW5pdHM9InVzZXJTcGFjZU9uVXNlIiB5Mj0iMTU1LjEzMiIgeTE9IjEyNS4yOTkiIHgyPSIxOTguNjYxIiB4MT0iMTI3LjUyOSIgaWQ9InNraWxsSWNvbnNTdXBhYmFzZURhcmswIj4mI3hhOyAgICAgICAgICA8c3RvcCBzdG9wLWNvbG9yPSIjMjQ5MzYxIi8+JiN4YTsgICAgICAgICAgPHN0b3Agc3RvcC1jb2xvcj0iIzNFQ0Y4RSIgb2Zmc2V0PSIxIi8+JiN4YTsgICAgICAgIDwvbGluZWFyR3JhZGllbnQ+JiN4YTsgICAgICAgIDxsaW5lYXJHcmFkaWVudCBncmFkaWVudFVuaXRzPSJ1c2VyU3BhY2VPblVzZSIgeTI9IjE0My4xODciIHkxPSI4Mi4xMiIgeDI9IjEyOC40MzMiIHgxPSI5NS45OTMiIGlkPSJza2lsbEljb25zU3VwYWJhc2VEYXJrMSI+JiN4YTsgICAgICAgICAgPHN0b3AvPiYjeGE7ICAgICAgICAgIDxzdG9wIHN0b3Atb3BhY2l0eT0iMCIgb2Zmc2V0PSIxIi8+JiN4YTsgICAgICAgIDwvbGluZWFyR3JhZGllbnQ+JiN4YTsgICAgICAgIDxjbGlwUGF0aCBpZD0ic2tpbGxJY29uc1N1cGFiYXNlRGFyazIiPiYjeGE7ICAgICAgICAgIDxwYXRoIGQ9Ik0zMiAyOGgxOTIuOTJ2MjAwSDMyeiIgZmlsbD0iI2ZmZiIvPiYjeGE7ICAgICAgICA8L2NsaXBQYXRoPiYjeGE7ICAgICAgPC9kZWZzPiYjeGE7ICAgIDwvZz4mI3hhOyAgPC9zdmc+JiN4YTs8L3N2Zz4=;sketch=1;hachureGap=4;jiggle=2;curveFitting=1;fontFamily=Architects Daughter;fontSource=https%3A%2F%2Ffonts.googleapis.com%2Fcss%3Ffamily%3DArchitects%2BDaughter;fontSize=20;" vertex="1" parent="1">
          <mxGeometry x="230.00000000000045" y="330" width="232" height="232" as="geometry" />
        </mxCell>
      </root>
    </mxGraphModel>
  </diagram>
  <diagram id="kvJDeV0JiaQE6RtEXent" name="Auth">
    <mxGraphModel dx="792" dy="1118" grid="1" gridSize="10" guides="1" tooltips="1" connect="1" arrows="1" fold="1" page="1" pageScale="1" pageWidth="850" pageHeight="1100" math="0" shadow="0">
      <root>
        <mxCell id="0" />
        <mxCell id="1" parent="0" />
      </root>
    </mxGraphModel>
  </diagram>
  <diagram id="gutlMbJdZ5ol1pCf68qS" name="Host">
    <mxGraphModel dx="792" dy="1118" grid="1" gridSize="10" guides="1" tooltips="1" connect="1" arrows="1" fold="1" page="1" pageScale="1" pageWidth="850" pageHeight="1100" math="0" shadow="0">
      <root>
        <mxCell id="0" />
        <mxCell id="1" parent="0" />
      </root>
    </mxGraphModel>
  </diagram>
  <diagram id="qYwWIOrlI8HCrFRB0sTf" name="Storage">
    <mxGraphModel dx="792" dy="1118" grid="1" gridSize="10" guides="1" tooltips="1" connect="1" arrows="1" fold="1" page="1" pageScale="1" pageWidth="850" pageHeight="1100" math="0" shadow="0">
      <root>
        <mxCell id="0" />
        <mxCell id="1" parent="0" />
      </root>
    </mxGraphModel>
  </diagram>
  <diagram id="_BzOK375IbmxHr3NDAac" name="Users">
    <mxGraphModel dx="792" dy="1118" grid="1" gridSize="10" guides="1" tooltips="1" connect="1" arrows="1" fold="1" page="1" pageScale="1" pageWidth="850" pageHeight="1100" math="0" shadow="0">
      <root>
        <mxCell id="0" />
        <mxCell id="1" parent="0" />
      </root>
    </mxGraphModel>
  </diagram>
  <diagram id="YER9hZH1jNMWoijYjvEg" name="Forms">
    <mxGraphModel dx="792" dy="1118" grid="1" gridSize="10" guides="1" tooltips="1" connect="1" arrows="1" fold="1" page="1" pageScale="1" pageWidth="850" pageHeight="1100" math="0" shadow="0">
      <root>
        <mxCell id="0" />
        <mxCell id="1" parent="0" />
      </root>
    </mxGraphModel>
  </diagram>
  <diagram id="esqRNDMD9oqEedhjjY67" name="Companies">
    <mxGraphModel dx="792" dy="1118" grid="1" gridSize="10" guides="1" tooltips="1" connect="1" arrows="1" fold="1" page="1" pageScale="1" pageWidth="850" pageHeight="1100" math="0" shadow="0">
      <root>
        <mxCell id="0" />
        <mxCell id="1" parent="0" />
      </root>
    </mxGraphModel>
  </diagram>
  <diagram id="cBO6cyPsbvviiyJ6bj_X" name="TipTap">
    <mxGraphModel dx="778" dy="1179" grid="1" gridSize="10" guides="1" tooltips="1" connect="1" arrows="1" fold="1" page="1" pageScale="1" pageWidth="1169" pageHeight="827" math="0" shadow="0">
      <root>
        <mxCell id="0" />
        <mxCell id="1" parent="0" />
      </root>
    </mxGraphModel>
  </diagram>
  <diagram id="oRXQV6eTB3v5fe_PdV25" name="Code">
    <mxGraphModel dx="778" dy="1179" grid="1" gridSize="10" guides="1" tooltips="1" connect="1" arrows="1" fold="1" page="1" pageScale="1" pageWidth="1169" pageHeight="827" math="0" shadow="0">
      <root>
        <mxCell id="0" />
        <mxCell id="1" parent="0" />
      </root>
    </mxGraphModel>
  </diagram>
  <diagram id="6hQwHrv1qFc3hxO1fV-i" name="Hosting">
    <mxGraphModel dx="778" dy="1179" grid="1" gridSize="10" guides="1" tooltips="1" connect="1" arrows="1" fold="1" page="1" pageScale="1" pageWidth="1169" pageHeight="827" math="0" shadow="0">
      <root>
        <mxCell id="0" />
        <mxCell id="1" parent="0" />
      </root>
    </mxGraphModel>
  </diagram>
</mxfile>
